HIERARCHY
ROOT Hips
{
	OFFSET	0	0	0
	CHANNELS 6  Xposition Yposition Zposition Xrotation Yrotation Zrotation
	JOINT Spine
	{
		OFFSET	0	0.0603846	0.012164
		CHANNELS 6  Xrotation Yrotation Zrotation Xposition Yposition Zposition
		JOINT Spine1
		{
			OFFSET	0	0.103734	-0.0185239
			CHANNELS 6  Xrotation Yrotation Zrotation Xposition Yposition Zposition
			JOINT Spine2
			{
				OFFSET	0	0.0786338	0.00842836
				CHANNELS 6  Xrotation Yrotation Zrotation Xposition Yposition Zposition
				JOINT Spine3
				{
					OFFSET	0	0.0941013	0.027971
					CHANNELS 6  Xrotation Yrotation Zrotation Xposition Yposition Zposition
					JOINT Spine4
					{
						OFFSET	0	0.1393	-0.0142634
						CHANNELS 3  Xrotation Yrotation Zrotation
						JOINT Neck
						{
							OFFSET	0	0.0665007	-0.0465875
							CHANNELS 3  Xrotation Yrotation Zrotation
							JOINT Head
							{
								OFFSET	0	0.0798379	-0.0238958
								CHANNELS 3  Xrotation Yrotation Zrotation
								End Site
								{
									OFFSET	0	0.16653	-0.00805788
								}
							}
						}
					}
					JOINT LeftShoulder
					{
						OFFSET	-0.0400116	0.169308	-0.0798379
						CHANNELS 3  Xrotation Yrotation Zrotation
						JOINT LeftArm
						{
							OFFSET	-0.0868785	-0.0238958	0.0306572
							CHANNELS 3  Xrotation Yrotation Zrotation
							JOINT LeftForeArm
							{
								OFFSET	-0.24701	-0.0112739	0.0176313
								CHANNELS 3  Xrotation Yrotation Zrotation
								JOINT LeftHand
								{
									OFFSET	-0.200677	-0.0138679	0.0143241
									CHANNELS 3  Xrotation Yrotation Zrotation
									End Site
									{
										OFFSET	-0.0732369	-0.0050611	0.00522723
									}
								}
							}
						}
					}
					JOINT RightShoulder
					{
						OFFSET	0.0400116	0.169308	-0.0798379
						CHANNELS 3  Xrotation Yrotation Zrotation
						JOINT RightArm
						{
							OFFSET	0.0868785	-0.0238958	0.0306572
							CHANNELS 3  Xrotation Yrotation Zrotation
							JOINT RightForeArm
							{
								OFFSET	0.24701	-0.0112739	0.0176313
								CHANNELS 3  Xrotation Yrotation Zrotation
								JOINT RightHand
								{
									OFFSET	0.200677	-0.0138679	0.0143241
									CHANNELS 3  Xrotation Yrotation Zrotation
									End Site
									{
										OFFSET	0.0732369	-0.0050611	0.00522723
									}
								}
							}
						}
					}
				}
			}
		}
	}
	JOINT LeftUpLeg
	{
		OFFSET	-0.10448	-0.0301923	-0.006082
		CHANNELS 3  Xrotation Yrotation Zrotation
		JOINT LeftLeg
		{
			OFFSET	0.00166856	-0.403236	-0.00630347
			CHANNELS 3  Xrotation Yrotation Zrotation
			JOINT LeftFoot
			{
				OFFSET	-0.0201155	-0.370793	0.0318882
				CHANNELS 3  Xrotation Yrotation Zrotation
				JOINT LeftToeBase
				{
					OFFSET	0	-0.046326	-0.123042
					CHANNELS 3  Xrotation Yrotation Zrotation
					End Site
					{
						OFFSET	0	-0.0185304	-0.0741216
					}
				}
			}
		}
	}
	JOINT RightUpLeg
	{
		OFFSET	0.10448	-0.0301923	-0.006082
		CHANNELS 3  Xrotation Yrotation Zrotation
		JOINT RightLeg
		{
			OFFSET	-0.00166856	-0.403236	-0.00630347
			CHANNELS 3  Xrotation Yrotation Zrotation
			JOINT RightFoot
			{
				OFFSET	0.0201155	-0.370793	0.0318882
				CHANNELS 3  Xrotation Yrotation Zrotation
				JOINT RightToeBase
				{
					OFFSET	0	-0.046326	-0.123042
					CHANNELS 3  Xrotation Yrotation Zrotation
					End Site
					{
						OFFSET	0	-0.0185304	-0.0741216
					}
				}
			}
		}
	}
}
MOTION
Frames: 18
Frame Time: 0.02
 -0.0105044 0.88085 1.30322 16.9018 1.95976 -1.44539 172.447 -179.355 -178.733 0 -0.0131957 0 175.507 -178.712 -177.889 0 -0.0131957 0 175.555 -177.423 -177.887 0 -0.0131957 0 3.24189 -9.63264 1.28465 0 -0.0131957 0 178.487 179.989 179.578 7.35127 6.25678 -4.50365 2.15846 12.3788 -4.13345 179.334 -174.012 178.653 170.68 170.799 -102.461 117.571 -169.169 160.034 -0 -28.6786 -5.06516 8.91482 18.0557 -19.4747 167.751 175.945 114.268 172.284 161.458 -177.471 -0 11.8807 -19.3226 163.787 173.025 175.31 0.101513 -0.355706 4.63317 2.62988 -5.75444 8.82113 164.827 180 -180 162.682 -158.659 -176.47 0.0574154 -0.0932877 3.14321 6.70053 4.59039 -17.2542 156.6 180 -180
 -0.0108041 0.880861 1.30322 16.9145 2.01098 -1.49059 172.46 -179.353 -178.729 0 -0.0131619 0 175.515 -178.707 -177.881 0 -0.0131619 0 175.563 -177.414 -177.879 0 -0.0131619 0 3.23836 -9.67115 1.28969 0 -0.0131619 0 178.489 179.989 179.576 6.7673 6.44404 -4.4356 2.77401 12.315 -4.24347 179.346 -173.713 178.674 170.659 170.409 -102.392 117.418 -169.362 160.257 -0 -28.6765 -5.08107 8.9857 17.8189 -19.6239 167.649 175.969 114.445 172.449 161.29 -177.51 -0 11.4499 -19.0538 163.759 173.091 175.312 0.102488 -0.317089 4.68517 2.61237 -5.7428 8.80337 164.827 180 -180 162.687 -158.695 -176.406 0.0279863 -0.0596667 3.12769 6.69148 4.5828 -17.2411 156.602 180 -180
 -0.0108766 0.880884 1.30326 16.9331 1.90984 -1.46657 172.471 -179.358 -178.731 0 -0.0131332 0 175.522 -178.716 -177.885 0 -0.0131332 0 175.569 -177.432 -177.883 0 -0.0131332 0 3.23178 -9.59936 1.28687 0 -0.0131332 0 178.491 179.989 179.577 6.21463 6.54676 -4.29128 3.34391 12.1007 -4.26673 179.362 -173.511 178.706 170.678 170.103 -102.374 117.275 -169.48 160.381 -0 -28.6778 -5.19571 9.02081 17.9472 -19.7101 167.565 175.98 114.668 172.598 161.289 -177.621 -0 10.9773 -18.7686 163.719 173.141 175.334 0.0979494 -0.224666 4.68484 2.62029 -5.72867 8.78299 164.828 180 -180 162.713 -158.732 -176.37 0.0203615 -0.0410524 3.11098 6.66666 4.59191 -17.2335 156.602 180 -180
 -0.0110012 0.8809 1.30342 16.9337 1.84611 -1.45789 172.456 -179.36 -178.737 0 -0.0131072 0 175.512 -178.72 -177.894 0 -0.0131072 0 175.559 -177.439 -177.893 0 -0.0131072 0 3.23637 -9.56898 1.28089 0 -0.0131072 0 178.488 179.989 179.579 6.11475 6.60689 -4.11234 3.89686 11.8686 -4.19718 179.399 -173.375 178.78 170.712 169.735 -102.367 117.163 -169.586 160.515 -0 -28.6801 -5.29104 9.06265 18.0521 -19.8105 167.522 176.035 114.858 172.698 161.28 -177.663 -0 10.472 -18.3295 163.706 173.172 175.368 0.109909 -0.28949 4.66612 2.62223 -5.71658 8.76411 164.829 180 -180 162.755 -158.784 -176.351 0.011844 -0.0827404 3.10954 6.63707 4.54858 -17.2324 156.602 180 -180
 -0.0111253 0.880936 1.30325 16.9571 1.78516 -1.44927 172.456 -179.364 -178.737 0 -0.0130831 0 175.512 -178.728 -177.895 0 -0.0130831 0 175.559 -177.456 -177.894 0 -0.0130831 0 3.23465 -9.50205 1.28017 0 -0.0130831 0 178.488 179.989 179.579 5.95793 6.68586 -4.0683 4.28012 11.7845 -4.23887 179.443 -173.227 178.868 170.798 169.285 -102.375 117.093 -169.692 160.638 -0 -28.6721 -5.48729 9.1359 18.1932 -19.9842 167.344 176.096 114.923 172.781 161.294 -177.649 -0 9.98699 -17.8272 163.678 173.221 175.397 0.11378 -0.234769 4.64729 2.60173 -5.73111 8.7616 164.829 180 -180 162.738 -158.775 -176.315 0.029056 -0.126671 3.10293 6.6116 4.50384 -17.2324 156.603 180 -180
 -0.0112167 0.880937 1.30315 16.9659 1.72003 -1.44197 172.464 -179.364 -178.742 0 -0.0130621 0 175.516 -178.729 -177.904 0 -0.0130621 0 175.563 -177.458 -177.902 0 -0.0130621 0 3.23039 -9.495 1.27501 0 -0.0130621 0 178.49 179.989 179.581 5.81732 6.76656 -3.83361 4.59613 11.721 -4.07516 179.464 -173.165 178.91 170.812 168.904 -102.385 117.035 -169.767 160.748 -0 -28.6822 -5.75023 9.22305 18.3188 -20.189 167.245 176.135 115.072 172.868 161.532 -177.719 -0 9.55429 -17.3022 163.644 173.26 175.424 0.125002 -0.29891 4.62925 2.60238 -5.72124 8.74582 164.83 180 -180 162.733 -158.767 -176.293 0.0379697 -0.0504776 3.10406 6.6249 4.60207 -17.2212 156.606 180 -180
 -0.0112896 0.880916 1.3031 16.978 1.66554 -1.43335 172.469 -179.367 -178.742 0 -0.0130445 0 175.519 -178.735 -177.903 0 -0.0130445 0 175.565 -177.47 -177.902 0 -0.0130445 0 3.22741 -9.44562 1.27505 0 -0.0130445 0 178.491 179.989 179.581 5.52471 6.69099 -3.70603 4.85831 11.372 -4.01705 179.431 -172.59 178.838 170.445 168.796 -102.149 116.889 -169.695 160.574 -0 -28.6531 -6.01415 9.2922 18.314 -20.3466 167.115 176.131 115.249 172.933 161.653 -177.783 -0 9.20153 -16.8028 163.604 173.318 175.457 0.118857 -0.161492 4.61304 2.64836 -5.72819 8.74182 164.832 180 -180 162.728 -158.763 -176.278 0.0266414 -0.0833667 3.09934 6.65322 4.70332 -17.2256 156.608 180 -180
 -0.0112392 0.880911 1.30311 16.9703 1.73848 -1.46114 172.468 -179.364 -178.74 0 -0.0130277 0 175.519 -178.729 -177.899 0 -0.0130277 0 175.565 -177.458 -177.898 0 -0.0130277 0 3.22935 -9.49409 1.27776 0 -0.0130277 0 178.491 179.989 179.58 5.22985 6.52363 -3.49341 5.02664 10.8855 -3.84805 179.382 -171.986 178.734 170.146 168.705 -101.952 116.795 -169.704 160.455 -0 -28.6339 -6.41548 9.38754 18.2146 -20.5596 167.049 176.245 115.345 172.998 161.688 -177.813 -0 8.92127 -16.1938 163.586 173.349 175.486 0.130485 -0.173151 4.60177 2.66904 -5.73694 8.73523 164.833 180 -180 162.713 -158.747 -176.277 0.0238395 -0.120748 3.09685 6.68248 4.80577 -17.2221 156.611 180 -180
 -0.0115078 0.880945 1.30323 16.962 1.7546 -1.45587 172.46 -179.363 -178.753 0 -0.0130094 0 175.514 -178.727 -177.921 0 -0.0130094 0 175.56 -177.453 -177.919 0 -0.0130094 0 3.23062 -9.51324 1.2646 0 -0.0130094 0 178.489 179.989 179.584 5.1472 6.33905 -3.25737 5.10666 10.4387 -3.61477 179.442 -171.523 178.853 169.911 168.609 -101.807 116.731 -169.759 160.376 -0 -28.6303 -6.73228 9.4693 18.2058 -20.7462 167.013 176.294 115.522 172.981 161.888 -177.813 -0 8.51525 -15.7247 163.602 173.355 175.528 0.128355 -0.251181 4.52301 2.64809 -5.74259 8.73104 164.833 180 -180 162.714 -158.741 -176.285 0.0182943 -0.130983 3.09103 6.68767 4.8997 -17.2241 156.612 180 -180
 -0.0116336 0.88092 1.30339 16.937 1.86724 -1.49331 172.469 -179.356 -178.751 0 -0.0129946 0 175.519 -178.713 -177.918 0 -0.0129946 0 175.566 -177.426 -177.916 0 -0.0129946 0 3.22999 -9.62272 1.26672 0 -0.0129946 0 178.491 179.989 179.584 4.78084 6.12528 -3.06926 5.09399 9.9627 -3.44252 179.429 -171.208 178.824 169.732 168.513 -101.68 116.718 -169.74 160.34 -0 -28.6136 -7.0456 9.5326 18.1794 -20.8898 166.944 176.2 115.663 172.853 161.876 -177.809 -0 8.01492 -15.3016 163.61 173.367 175.539 0.152296 -0.237332 4.48937 2.64113 -5.76067 8.71107 164.833 180 -180 162.751 -158.69 -176.255 179.995 -179.86 -176.916 6.70116 4.96696 -17.2302 156.614 180 -180
 -0.0118235 0.880876 1.3033 16.9376 1.93878 -1.50344 172.455 -179.354 -178.757 0 -0.0129822 0 175.511 -178.708 -177.928 0 -0.0129822 0 175.558 -177.415 -177.927 0 -0.0129822 0 3.23544 -9.66738 1.26065 0 -0.0129822 0 178.488 179.989 179.586 4.75495 5.93248 -2.80738 5.33161 9.42146 -3.1919 179.457 -170.807 178.88 169.646 168.343 -101.605 116.719 -169.845 160.52 -0 -28.6484 -7.25993 9.51231 18.1374 -20.8412 166.784 176.085 115.781 172.717 161.651 -177.725 -0 7.68341 -14.928 163.629 173.371 175.563 0.163208 -0.279042 4.49032 2.66727 -5.7588 8.69718 164.833 180 -180 162.726 -158.579 -176.243 0.025893 -0.136363 3.07642 6.69799 5.02155 -17.2373 156.615 180 -180
 -0.0116946 0.880905 1.3032 16.8957 1.90779 -1.50402 172.481 -179.349 -178.754 0 -0.0129685 0 175.528 -178.699 -177.922 0 -0.0129685 0 175.575 -177.397 -177.921 0 -0.0129685 0 3.22703 -9.73908 1.26445 0 -0.0129685 0 178.493 179.989 179.585 4.14599 5.77436 -2.61293 5.51457 8.93715 -3.05861 179.492 -170.674 178.952 169.578 167.914 -101.762 116.787 -169.905 160.758 -0 -28.6623 -7.68992 9.54363 18.1074 -20.9114 166.642 175.814 115.84 172.692 161.653 -177.71 -0 7.65607 -14.9245 163.662 173.39 175.583 0.144195 -0.202213 4.49516 2.66951 -5.74818 8.69345 164.834 180 -180 162.774 -158.525 -176.242 0.0336909 -0.167943 3.06914 6.70068 5.02651 -17.2451 156.621 180 -180
 -0.0118293 0.880985 1.3034 16.8459 1.86167 -1.49498 172.481 -179.347 -178.758 0 -0.0129548 0 175.528 -178.695 -177.929 0 -0.0129548 0 175.575 -177.39 -177.927 0 -0.0129548 0 3.22702 -9.76778 1.26064 0 -0.0129548 0 178.493 179.989 179.586 3.64391 5.64896 -2.46232 5.54061 8.62224 -2.94176 179.601 -170.552 179.175 169.523 167.556 -101.938 116.688 -169.984 160.847 -0 -28.674 -7.88863 9.60957 18.234 -21.069 166.526 175.583 115.882 172.659 161.802 -177.658 -0 7.63453 -15.0162 163.708 173.399 175.597 0.12522 -0.132115 4.496 2.6483 -5.74074 8.68951 164.834 180 -180 162.884 -158.44 -176.204 0.0166319 -0.183115 3.06718 6.6336 5.03972 -17.2561 156.627 180 -180
 -0.012315 0.881067 1.30397 16.7903 1.76562 -1.46341 172.501 -179.349 -178.764 0 -0.0129434 0 175.539 -178.699 -177.939 0 -0.0129434 0 175.586 -177.398 -177.937 0 -0.0129434 0 3.21734 -9.73709 1.25434 0 -0.0129434 0 178.497 179.989 179.588 3.16568 5.54103 -2.4725 5.45639 8.41127 -2.9734 179.719 -170.443 179.42 169.579 167.284 -102.158 116.46 -170.138 160.966 -0 -28.6708 -7.7165 9.67272 18.6637 -21.2351 166.446 175.416 116.022 172.601 162.001 -177.611 -0 7.62054 -14.9228 163.835 173.45 175.618 0.074235 -0.163502 4.50976 2.58916 -5.71567 8.66985 164.836 180 -180 163.011 -158.397 -176.149 0.0272827 -0.115387 3.06671 6.52164 5.1153 -17.2554 156.631 180 -180
 -0.0128861 0.881151 1.30465 16.7724 1.6875 -1.4399 172.498 -179.352 -178.771 0 -0.0129325 0 175.537 -178.705 -177.951 0 -0.0129325 0 175.583 -177.41 -177.95 0 -0.0129325 0 3.21607 -9.68796 1.24668 0 -0.0129325 0 178.497 179.989 179.591 2.46519 5.44886 -2.41887 5.24547 8.28167 -2.94925 179.91 -170.343 179.815 169.704 167.087 -102.381 116.239 -170.278 161.072 -0 -28.6696 -7.47387 9.72012 19.0721 -21.3629 166.386 175.268 116.134 172.538 162.159 -177.622 -0 7.63157 -14.7622 163.938 173.498 175.639 0.0368639 -0.143726 4.52938 2.50328 -5.71211 8.66357 164.836 180 -180 163.106 -158.368 -176.109 0.0300269 -0.12459 3.06845 6.42139 5.17864 -17.2546 156.634 180 -180
 -0.0134051 0.881227 1.30469 16.7001 1.57663 -1.41801 172.496 -179.352 -178.769 0 -0.0129233 0 175.536 -178.704 -177.947 0 -0.0129233 0 175.582 -177.409 -177.946 0 -0.0129233 0 3.2175 -9.6928 1.24902 0 -0.0129233 0 178.496 179.989 179.59 1.46474 5.31403 -2.26011 5.05058 8.03685 -2.83977 0.011891 -9.56563 0.0245847 169.801 166.852 -102.663 116.107 -170.465 161.305 -0 -28.691 -7.35896 9.75368 19.0841 -21.4407 166.366 175.25 116.132 172.451 162.319 -177.559 -0 7.6631 -14.533 163.911 173.546 175.67 0.141374 -0.148795 4.56016 2.54238 -5.69039 8.65335 164.834 180 -180 163.274 -158.34 -176.049 179.995 -179.875 -176.93 6.35546 5.18144 -17.2619 156.638 180 -180
 -0.0142652 0.88128 1.30512 16.6487 1.52273 -1.40162 172.506 -179.355 -178.769 0 -0.0129174 0 175.542 -178.711 -177.949 0 -0.0129174 0 175.588 -177.422 -177.947 0 -0.0129174 0 3.21207 -9.64029 1.24818 0 -0.0129174 0 178.499 179.989 179.59 1.02443 5.14242 -2.23365 5.1165 7.62073 -2.8302 0.198234 -9.60419 0.409941 169.923 166.696 -102.984 115.972 -170.58 161.483 -0 -28.6858 -7.23414 9.79967 19.7459 -21.575 166.188 175.149 116.16 172.432 162.734 -177.69 -0 7.7723 -14.2646 164.026 173.565 175.731 0.0952516 -0.00622731 4.57179 2.49531 -5.66428 8.6631 164.837 180 -180 163.41 -158.275 -175.991 0.00616645 -0.133559 3.06667 6.26478 5.17001 -17.2555 156.641 180 -180
 -0.0148306 0.881335 1.30545 16.5595 1.52691 -1.4169 172.494 -179.354 -178.769 0 -0.0129092 0 175.534 -178.709 -177.948 0 -0.0129092 0 175.58 -177.419 -177.946 0 -0.0129092 0 3.21754 -9.65445 1.24884 0 -0.0129092 0 178.496 179.989 179.59 0.454093 4.90006 -2.04197 5.5536 6.8628 -2.6781 0.330664 -9.8175 0.684627 169.96 166.763 -103.234 115.881 -170.706 161.671 -0 -28.6817 -7.11243 9.82012 20.2479 -21.6416 165.953 175.033 116.031 172.551 162.916 -177.787 -0 8.22357 -14.1011 164.141 173.537 175.809 0.0796077 0.0470484 4.54577 2.48315 -5.62024 8.66682 164.837 180 -180 163.565 -158.291 -175.937 179.984 -179.836 -176.944 6.23438 5.14223 -17.2406 156.644 180 -180
